<?xml version="1.0" encoding="UTF-8" standalone="no"?>
<!DOCTYPE svg PUBLIC "-//W3C//DTD SVG 1.1//EN"
 "http://www.w3.org/Graphics/SVG/1.1/DTD/svg11.dtd">
<!-- Generated by graphviz version 2.44.0 (0)
 -->
<!-- Pages: 1 -->
<svg width="545pt" height="260pt"
 viewBox="0.00 0.00 544.79 260.00" xmlns="http://www.w3.org/2000/svg" xmlns:xlink="http://www.w3.org/1999/xlink">
<g id="graph0" class="graph" transform="scale(1 1) rotate(0) translate(4 256)">
<polygon fill="white" stroke="transparent" points="-4,4 -4,-256 540.79,-256 540.79,4 -4,4"/>
<!-- [root] aws_instance.tf&#45;ec2 (expand) -->
<g id="node1" class="node">
<title>[root] aws_instance.tf&#45;ec2 (expand)</title>
<polygon fill="none" stroke="black" points="258.39,-108 122.39,-108 122.39,-72 258.39,-72 258.39,-108"/>
<text text-anchor="middle" x="190.39" y="-86.3" font-family="Times-Roman" font-size="14.00">aws_instance.tf&#45;ec2</text>
</g>
<!-- [root] provider[&quot;registry.terraform.io/hashicorp/aws&quot;] -->
<g id="node3" class="node">
<title>[root] provider[&quot;registry.terraform.io/hashicorp/aws&quot;]</title>
<polygon fill="none" stroke="black" points="268.39,-36 0.11,-18 268.39,0 536.68,-18 268.39,-36"/>
<text text-anchor="middle" x="268.39" y="-14.3" font-family="Times-Roman" font-size="14.00">provider[&quot;registry.terraform.io/hashicorp/aws&quot;]</text>
</g>
<!-- [root] aws_instance.tf&#45;ec2 (expand)&#45;&gt;[root] provider[&quot;registry.terraform.io/hashicorp/aws&quot;] -->
<g id="edge1" class="edge">
<title>[root] aws_instance.tf&#45;ec2 (expand)&#45;&gt;[root] provider[&quot;registry.terraform.io/hashicorp/aws&quot;]</title>
<path fill="none" stroke="black" d="M209.67,-71.7C219.77,-62.64 232.25,-51.44 243.11,-41.69"/>
<polygon fill="black" stroke="black" points="245.56,-44.19 250.67,-34.91 240.89,-38.98 245.56,-44.19"/>
</g>
<!-- [root] aws_s3_bucket.tf&#45;s3 (expand) -->
<g id="node2" class="node">
<title>[root] aws_s3_bucket.tf&#45;s3 (expand)</title>
<polygon fill="none" stroke="black" points="416.39,-108 276.39,-108 276.39,-72 416.39,-72 416.39,-108"/>
<text text-anchor="middle" x="346.39" y="-86.3" font-family="Times-Roman" font-size="14.00">aws_s3_bucket.tf&#45;s3</text>
</g>
<!-- [root] aws_s3_bucket.tf&#45;s3 (expand)&#45;&gt;[root] provider[&quot;registry.terraform.io/hashicorp/aws&quot;] -->
<g id="edge2" class="edge">
<title>[root] aws_s3_bucket.tf&#45;s3 (expand)&#45;&gt;[root] provider[&quot;registry.terraform.io/hashicorp/aws&quot;]</title>
<path fill="none" stroke="black" d="M327.11,-71.7C317.02,-62.64 304.54,-51.44 293.68,-41.69"/>
<polygon fill="black" stroke="black" points="295.9,-38.98 286.12,-34.91 291.22,-44.19 295.9,-38.98"/>
</g>
<!-- [root] provider[&quot;registry.terraform.io/hashicorp/aws&quot;] (close) -->
<g id="node4" class="node">
<title>[root] provider[&quot;registry.terraform.io/hashicorp/aws&quot;] (close)</title>
<ellipse fill="none" stroke="black" cx="268.39" cy="-162" rx="241.26" ry="18"/>
<text text-anchor="middle" x="268.39" y="-158.3" font-family="Times-Roman" font-size="14.00">[root] provider[&quot;registry.terraform.io/hashicorp/aws&quot;] (close)</text>
</g>
<!-- [root] provider[&quot;registry.terraform.io/hashicorp/aws&quot;] (close)&#45;&gt;[root] aws_instance.tf&#45;ec2 (expand) -->
<g id="edge3" class="edge">
<title>[root] provider[&quot;registry.terraform.io/hashicorp/aws&quot;] (close)&#45;&gt;[root] aws_instance.tf&#45;ec2 (expand)</title>
<path fill="none" stroke="black" d="M249.51,-144.05C239.72,-135.26 227.59,-124.38 216.87,-114.76"/>
<polygon fill="black" stroke="black" points="219.15,-112.11 209.37,-108.03 214.48,-117.32 219.15,-112.11"/>
</g>
<!-- [root] provider[&quot;registry.terraform.io/hashicorp/aws&quot;] (close)&#45;&gt;[root] aws_s3_bucket.tf&#45;s3 (expand) -->
<g id="edge4" class="edge">
<title>[root] provider[&quot;registry.terraform.io/hashicorp/aws&quot;] (close)&#45;&gt;[root] aws_s3_bucket.tf&#45;s3 (expand)</title>
<path fill="none" stroke="black" d="M287.28,-144.05C297.07,-135.26 309.2,-124.38 319.92,-114.76"/>
<polygon fill="black" stroke="black" points="322.31,-117.32 327.42,-108.03 317.64,-112.11 322.31,-117.32"/>
</g>
<!-- [root] root -->
<g id="node5" class="node">
<title>[root] root</title>
<ellipse fill="none" stroke="black" cx="268.39" cy="-234" rx="48.19" ry="18"/>
<text text-anchor="middle" x="268.39" y="-230.3" font-family="Times-Roman" font-size="14.00">[root] root</text>
</g>
<!-- [root] root&#45;&gt;[root] provider[&quot;registry.terraform.io/hashicorp/aws&quot;] (close) -->
<g id="edge5" class="edge">
<title>[root] root&#45;&gt;[root] provider[&quot;registry.terraform.io/hashicorp/aws&quot;] (close)</title>
<path fill="none" stroke="black" d="M268.39,-215.7C268.39,-207.98 268.39,-198.71 268.39,-190.11"/>
<polygon fill="black" stroke="black" points="271.89,-190.1 268.39,-180.1 264.89,-190.1 271.89,-190.1"/>
</g>
</g>
</svg>
